<?xml version="1.0" standalone="no"?><!DOCTYPE svg PUBLIC "-//W3C//DTD SVG 1.1//EN" "http://www.w3.org/Graphics/SVG/1.1/DTD/svg11.dtd"><svg class="icon" width="200px" height="200.00px" viewBox="0 0 1024 1024" version="1.1" xmlns="http://www.w3.org/2000/svg"><path d="M514.61382229 279.03155281c-6.57154406 42.2017875-51.27723375 81.68861531-56.35219313 86.05365563-3.62634094 3.1082925-8.06812969 4.63365844-12.49073156 4.63365844-5.40113813 0-10.7639025-2.26406531-14.55333281-6.66747938-6.89772375-8.02975594-5.98634156-20.13674719 2.04341437-27.04406437 10.80227625-9.33447094 39.71707219-38.86325063 43.45853531-62.87577 3.21382125-20.62601531-5.22845531-29.40406406-19.21577156-43.93821-11.704065-12.15495937-26.25739781-27.29349469-30.61284469-51.37316907-13.71869906-75.91333031 49.90536375-125.52129656 52.62032344-127.59349125 8.41349531-6.43723594 20.44373906-4.82552812 26.880975 3.58796719 6.40845469 8.39430844 4.82552812 20.39577188-3.54 26.83300688-0.29739844 0.23983781-12.73056844 10.04439-23.53284469 26.45886093-13.6611375 20.76032437-18.60178781 42.24975469-14.68764187 63.89268094 2.28325219 12.67300781 10.32260156 21.0289425 20.50129969 31.60097437C501.00065197 219.0913925 520.75365978 239.61187906 514.61382229 279.03155281z" fill="#1296db" /><path d="M656.25219135 279.03155281c-6.58113844 42.2017875-51.27723375 81.68861531-56.35219313 86.05365563-3.62634094 3.1082925-8.06812969 4.63365844-12.500325 4.63365844-5.39154469 0-10.75430812-2.26406531-14.54373937-6.66747938-6.90731719-8.02975594-5.98634156-20.13674719 2.04341437-27.04406437 10.80227625-9.33447094 39.71707219-38.86325063 43.45853531-62.87577 3.21382125-20.62601531-5.22845531-29.40406406-19.21577156-43.93821-11.704065-12.15495937-26.26699125-27.29349469-30.61284468-51.37316907-13.71869906-75.91333031 49.90536375-125.52129656 52.62032343-127.59349125 8.41349531-6.43723594 20.44373906-4.82552812 26.880975 3.58796719 6.40845469 8.39430844 4.82552812 20.39577188-3.54 26.83300688-0.29739844 0.23024344-12.73056844 10.03479656-23.53284468 26.45886093-13.6611375 20.76032437-18.60178781 42.24975469-14.69723532 63.89268094 2.29284562 12.67300781 10.332195 21.0289425 20.51089407 31.60097437C642.63902103 219.0913925 662.39202885 239.61187906 656.25219135 279.03155281z" fill="#1296db" /><path d="M372.97545322 279.03155281c-6.57154406 42.2017875-51.27723375 81.68861531-56.35219312 86.05365563-3.6167475 3.1082925-8.06812969 4.63365844-12.49073156 4.63365844-5.40113813 0-10.75430812-2.26406531-14.55333282-6.66747938-6.89772375-8.02975594-5.98634156-20.13674719 2.04341438-27.04406437 10.80227625-9.33447094 39.71707219-38.86325063 43.45853531-62.87577 3.21382125-20.62601531-5.22845531-29.40406406-19.21577156-43.93821-11.704065-12.15495937-26.25739781-27.29349469-30.61284469-51.37316907-13.71869906-75.91333031 49.90536375-125.52129656 52.62032344-127.59349125 8.41349531-6.43723594 20.4533325-4.82552812 26.880975 3.58796719 6.41804813 8.39430844 4.82552812 20.39577188-3.54 26.83300688-0.29739844 0.23983781-12.73056844 10.04439-23.53284469 26.45886093-13.6611375 20.76032437-18.60178781 42.24975469-14.68764187 63.89268094 2.28325219 12.67300781 10.32260156 21.0289425 20.50129968 31.60097437C359.36228291 219.0913925 379.11529072 239.61187906 372.97545322 279.03155281z" fill="#1296db" /><path d="M914.94080104 470.75756281c-29.22178781 0-55.88211187 11.13804844-75.96129844 29.39447063l0-71.66341219c0-10.60081219-8.58617812-19.18699125-19.18699125-19.18699125l-690.73168407 0c-10.60081219 0-19.18699125 8.58617812-19.18699125 19.18699125l0 210.56763469c0 58.52991656 10.4089425 111.05430562 30.94861688 156.13414125 16.6255275 36.50325094 39.85138031 68.14259906 69.00601406 94.03544437 49.81902281 44.226015 99.77235469 56.30422594 101.87332969 56.8030875 1.42943062 0.33577219 2.90682938 0.508455 4.37463375 0.508455l287.65137281 0c1.18959375 0 2.37918656-0.11512219 3.54959344-0.33577218 2.37918656-0.45089438 59.07674625-11.47382063 116.02373625-54.3471525 33.62520187-25.30764187 60.42942844-56.50568906 79.67398125-92.73072844 23.88780375-44.96471437 36.00438938-97.59463125 36.00438937-156.43153969l0-52.09268156c0.79626-2.11056937 1.23756094-4.39382063 1.23756094-6.78260157 0-41.19447 33.51967406-74.71414406 74.7237375-74.71414406 41.19447 0 74.71414406 33.51967406 74.71414406 74.71414406 0 41.20406344-33.51967406 74.7237375-74.71414406 74.7237375-10.59121875 0-19.17739781 8.58617812-19.17739781 19.16780438 0 10.59121875 8.58617812 19.17739781 19.17739781 19.17739781 62.33853469 0 113.05934531-50.72081156 113.05934531-113.06893969C1028.00014635 521.47837344 977.27933572 470.75756281 914.94080104 470.75756281zM800.6055201 642.69219031c0 52.102275-10.44731719 98.39089125-31.06373907 137.56113375-16.38569062 31.15967344-39.30455156 58.07902219-68.09463187 80.01934688-44.98390125 34.27755938-90.85999688 45.87609563-99.73398 47.89072968l-283.1520225 0c-8.68211344-2.455935-45.76097438-14.34227625-83.252355-47.63170593-25.13495812-22.31447063-45.17577094-49.65593344-59.56601438-81.24731438-18.24682875-40.05284437-27.49495875-87.2240625-27.49495875-140.22812531l0-191.38064438 652.35770157 1e-8L800.6055201 642.69219031z" fill="#1296db" /></svg>