<?xml version="1.0" standalone="no"?><!DOCTYPE svg PUBLIC "-//W3C//DTD SVG 1.1//EN" "http://www.w3.org/Graphics/SVG/1.1/DTD/svg11.dtd"><svg class="icon" width="200px" height="200.00px" viewBox="0 0 1024 1024" version="1.1" xmlns="http://www.w3.org/2000/svg"><path d="M319.580909 261.296827h63.756738v505.776078h-63.756738v-505.776078zM574.601865 251.306583l0.436574 314.692683-63.738755 0.062939-0.451559-314.69568 63.75374-0.059942z" fill="#1296db" /><path d="M574.601865 261.296827h-63.75374c0-35.162661-28.593077-63.756738-63.752742-63.756737-35.162661 0-63.755739 28.594076-63.755738 63.756737h-63.755739c0-70.325323 57.187153-127.512476 127.513475-127.512476 70.319329 0.000999 127.504484 57.188152 127.504484 127.512476zM858.266849 1024H303.641475L160.189565 852.71527V676.316535l73.096616-73.094619 45.077979 45.07698-54.417858 54.417857v128.735282l111.574041 128.792226h467.33362l55.475824-314.373994L530.41202 511.926072l24.142423-59.039344L928.436324 605.648546 858.266849 1024z" fill="#1296db" /><path d="M412.278384 0h63.575915V100.369982h-63.575915V0zM678.374525 349.65454h177.102049v63.574916H678.374525v-63.574916zM52.6336 349.65454h177.100051v63.574916H52.6336v-63.574916zM176.882263 69.247376l109.864711 109.879695-44.93312 44.93312-109.879696-109.86471 44.948105-44.948105zM704.04146 69.247376L594.17575 179.127071l44.934119 44.93312 109.879696-109.86471-44.948105-44.948105z" fill="#1296db" /></svg>